<svg width="26" height="26" viewBox="0 0 26 26" fill="transparent" color="transparent" xmlns="http://www.w3.org/2000/svg">
  <circle cx="13" cy="13" r="12.5" fill="currentColor" stroke="white"></circle>
  <path d="M17.2901 9.25506C17.4802 9.08965 17.7332 8.99821 17.9956 9.00003C18.2581 9.00184 18.5095 9.09677 18.6968 9.26478C18.8841 9.4328 18.9927 9.66075 18.9996 9.90055C19.0066 10.1403 18.9113 10.3732 18.734 10.5501L13.3499 16.7044C13.2573 16.7955 13.1456 16.8686 13.0214 16.9194C12.8972 16.9702 12.763 16.9975 12.627 16.9998C12.4909 17.0021 12.3558 16.9793 12.2296 16.9328C12.1034 16.8863 11.9888 16.817 11.8926 16.729L8.32211 13.4656C8.22268 13.381 8.14293 13.2788 8.08761 13.1654C8.0323 13.0519 8.00256 12.9294 8.00016 12.8052C7.99776 12.681 8.02276 12.5577 8.07366 12.4425C8.12456 12.3273 8.20032 12.2227 8.29642 12.1348C8.39252 12.047 8.507 11.9778 8.63301 11.9312C8.75903 11.8847 8.89401 11.8619 9.02989 11.8641C9.16578 11.8662 9.29979 11.8934 9.42394 11.944C9.54808 11.9945 9.65981 12.0674 9.75246 12.1583L12.5781 14.7397L17.2645 9.28219C17.2729 9.27269 17.2819 9.26364 17.2915 9.25506H17.2901Z" fill="currentFill"></path>
</svg>