<svg width="15" height="12" viewBox="0 0 15 12" fill="none" xmlns="http://www.w3.org/2000/svg">
  <path d="M13.7594 5.39466C14.0799 5.81389 14.0799 6.37985 13.7594 6.7984C12.7498 8.11628 10.3277 10.8298 7.49997 10.8298C4.67219 10.8298 2.25012 8.11628 1.24059 6.7984C1.08465 6.59767 1 6.35072 1 6.09653C1 5.84234 1.08465 5.59539 1.24059 5.39466C2.25012 4.07679 4.67219 1.36328 7.49997 1.36328C10.3277 1.36328 12.7498 4.07679 13.7594 5.39466V5.39466Z" stroke="white" stroke-width="1.18182" stroke-linecap="round" stroke-linejoin="round"></path>
  <path d="M7.50119 8.12543C8.62152 8.12543 9.52973 7.21722 9.52973 6.09689C9.52973 4.97657 8.62152 4.06836 7.50119 4.06836C6.38086 4.06836 5.47266 4.97657 5.47266 6.09689C5.47266 7.21722 6.38086 8.12543 7.50119 8.12543Z" stroke="white" stroke-width="1.18182" stroke-linecap="round" stroke-linejoin="round"></path>
</svg>