<svg width="26" height="26" viewBox="0 0 26 26" fill="none" xmlns="http://www.w3.org/2000/svg">
  <path d="M11.3827 19V10.536H13.6547V19H11.3827ZM12.5027 8.792C12.0654 8.792 11.724 8.68533 11.4787 8.472C11.2334 8.25867 11.1107 7.95467 11.1107 7.56C11.1107 7.19733 11.2334 6.904 11.4787 6.68C11.7347 6.44533 12.076 6.328 12.5027 6.328C12.94 6.328 13.2814 6.44 13.5267 6.664C13.772 6.87733 13.8947 7.176 13.8947 7.56C13.8947 7.93333 13.7667 8.232 13.5107 8.456C13.2654 8.68 12.9294 8.792 12.5027 8.792Z" fill="white"></path>
  <circle cx="13" cy="13" r="12.5" stroke="white"></circle>
</svg>